<svg width="19" height="16" viewBox="0 0 19 16" fill="none" xmlns="http://www.w3.org/2000/svg">
<g id="Icon">
<path fill-rule="evenodd" clip-rule="evenodd" d="M0.75 2.1438C0.75 1.45344 1.30964 0.893799 2 0.893799H17C17.6904 0.893799 18.25 1.45344 18.25 2.1438C18.25 2.83415 17.6904 3.3938 17 3.3938H2C1.30964 3.3938 0.75 2.83415 0.75 2.1438Z" fill="#111827"/>
<path fill-rule="evenodd" clip-rule="evenodd" d="M0.75 8.3938C0.75 7.70344 1.30964 7.1438 2 7.1438H17C17.6904 7.1438 18.25 7.70344 18.25 8.3938C18.25 9.08415 17.6904 9.6438 17 9.6438H2C1.30964 9.6438 0.75 9.08415 0.75 8.3938Z" fill="#111827"/>
<path fill-rule="evenodd" clip-rule="evenodd" d="M0.75 14.6438C0.75 13.9534 1.30964 13.3938 2 13.3938H17C17.6904 13.3938 18.25 13.9534 18.25 14.6438C18.25 15.3342 17.6904 15.8938 17 15.8938H2C1.30964 15.8938 0.75 15.3342 0.75 14.6438Z" fill="#111827"/>
</g>
</svg>
