<svg width="24" height="23" viewBox="0 0 24 23" fill="none" xmlns="http://www.w3.org/2000/svg">
<path d="M21.3834 0.434107L21.3755 0.437027L0.716896 8.54398C0.54267 8.61172 0.388862 8.71938 0.269228 8.85732C0.149595 8.99525 0.0678676 9.15917 0.0313579 9.33439C-0.00893678 9.51789 -0.000508203 9.70801 0.0558851 9.88765C0.112278 10.0673 0.214867 10.2308 0.354421 10.3635L4.2277 14.0377C4.41876 14.2188 4.67045 14.3311 4.93938 14.355C5.20832 14.379 5.47765 14.3132 5.70095 14.169L15.1376 8.011C15.1749 7.98694 15.2198 7.97596 15.2646 7.97996C15.3095 7.98395 15.3514 8.00267 15.3833 8.03289C15.4151 8.0631 15.4349 8.10291 15.4391 8.14546C15.4433 8.188 15.4317 8.2306 15.4064 8.26592L8.91507 17.2173C8.76303 17.429 8.69356 17.6844 8.71864 17.9394C8.74372 18.1945 8.86178 18.4332 9.05246 18.6146L12.9264 22.2894C13.0597 22.4161 13.2241 22.5093 13.4048 22.5608C13.5855 22.6124 13.7769 22.6205 13.9617 22.5845C14.1847 22.5419 14.3894 22.4379 14.5505 22.2855C14.6622 22.1793 14.7504 22.0531 14.81 21.9141L23.3903 2.3502L23.3937 2.34112C23.5058 2.07454 23.533 1.78264 23.4721 1.50153C23.4111 1.22043 23.2646 0.962453 23.0507 0.759522C22.8367 0.55659 22.5648 0.417608 22.2685 0.359771C21.9721 0.301933 21.6644 0.327779 21.3834 0.434107Z" fill="white"/>
</svg>
